#format: frame checksums
#version: 2
#hash: MD5
#software: Lavf62.3.100
#tb 0: 1/2
#media_type 0: video
#codec_id 0: rawvideo
#dimensions 0: 180x320
#sar 0: 1/1
#stream#, dts,        pts, duration,     size, hash
0,          0,          0,        1,    86400, 47b318210242a1c6de430eafe594f627
0,          1,          1,        1,    86400, 30ddefbc760c4721230a96af0f530a88
0,          2,          2,        1,    86400, 090cdcf09c8efaf6da83afeb36751273
